<?xml version="1.0" encoding="iso-8859-1"?>
<!-- Generator: Adobe Illustrator 19.0.0, SVG Export Plug-In . SVG Version: 6.00 Build 0)  -->
<svg version="1.1" id="Layer_1" xmlns="http://www.w3.org/2000/svg" xmlns:xlink="http://www.w3.org/1999/xlink" x="0px" y="0px"
	 viewBox="0 0 512 512" style="enable-background:new 0 0 512 512;" xml:space="preserve">
<circle style="fill:#71E2EF;" cx="256" cy="256" r="256"/>
<path style="fill:#38C6D9;" d="M512,256L398.222,142.222L124.826,389.206l122.637,122.635c2.836,0.093,5.679,0.157,8.537,0.157
	C397.384,512,512,397.384,512,256z"/>
<path style="fill:#FEE187;" d="M147.947,398.222h216.107c18.872,0,34.17-15.298,34.17-34.17v-221.83H113.778v221.83
	C113.778,382.924,129.076,398.222,147.947,398.222z"/>
<path style="fill:#FFC61B;" d="M255.426,142.222v256h108.627c18.872,0,34.17-15.298,34.17-34.17v-221.83H255.426z"/>
<rect x="113.778" y="142.222" style="fill:#FF6262;" width="284.444" height="56.889"/>
<rect x="255.431" y="142.222" style="fill:#E03A00;" width="142.791" height="56.889"/>
<g>
	<path style="fill:#940030;" d="M170.667,170.667L170.667,170.667c-7.854,0-14.222-6.368-14.222-14.222V128
		c0-7.854,6.368-14.222,14.222-14.222l0,0c7.854,0,14.222,6.368,14.222,14.222v28.444
		C184.889,164.299,178.521,170.667,170.667,170.667z"/>
	<path style="fill:#940030;" d="M227.556,170.667L227.556,170.667c-7.854,0-14.222-6.368-14.222-14.222V128
		c0-7.854,6.368-14.222,14.222-14.222l0,0c7.854,0,14.222,6.368,14.222,14.222v28.444
		C241.778,164.299,235.41,170.667,227.556,170.667z"/>
	<path style="fill:#940030;" d="M284.444,170.667L284.444,170.667c-7.854,0-14.222-6.368-14.222-14.222V128
		c0-7.854,6.368-14.222,14.222-14.222l0,0c7.854,0,14.222,6.368,14.222,14.222v28.444
		C298.667,164.299,292.299,170.667,284.444,170.667z"/>
	<path style="fill:#940030;" d="M341.333,170.667L341.333,170.667c-7.854,0-14.222-6.368-14.222-14.222V128
		c0-7.854,6.368-14.222,14.222-14.222l0,0c7.854,0,14.222,6.368,14.222,14.222v28.444
		C355.556,164.299,349.187,170.667,341.333,170.667z"/>
</g>
<rect x="142.222" y="199.111" style="fill:#FFFFFF;" width="227.556" height="170.667"/>
<rect x="255.431" y="199.111" style="fill:#E8E8E8;" width="114.347" height="170.667"/>
<path style="fill:#273B7A;" d="M262.38,315.461v-10.366h-27.974c-3.531,0-6.177-0.798-7.94-2.396
	c-1.765-1.596-2.646-3.77-2.646-6.52c0-0.705,0.129-1.421,0.39-2.145c0.26-0.724,0.65-1.484,1.171-2.284
	c0.521-0.798,1.058-1.569,1.617-2.313c0.557-0.743,1.245-1.653,2.062-2.731l29.534-39.508c1.932-2.601,3.52-4.487,4.767-5.656
	c1.245-1.171,2.739-1.757,4.486-1.757c5.646,0,8.47,3.232,8.47,9.697v43.132h2.398c2.86,0,5.154,0.391,6.882,1.171
	s2.591,2.489,2.591,5.127c0,2.155-0.705,3.725-2.119,4.708c-1.412,0.984-3.531,1.476-6.353,1.476h-3.401v10.366
	c0,2.862-0.631,4.989-1.895,6.38c-1.262,1.395-2.953,2.091-5.07,2.091c-2.081,0-3.762-0.717-5.044-2.146
	C263.021,320.357,262.38,318.247,262.38,315.461z M238.418,292.614h23.961v-32.377L238.418,292.614z"/>
<g>
</g>
<g>
</g>
<g>
</g>
<g>
</g>
<g>
</g>
<g>
</g>
<g>
</g>
<g>
</g>
<g>
</g>
<g>
</g>
<g>
</g>
<g>
</g>
<g>
</g>
<g>
</g>
<g>
</g>
</svg>
